<?xml version="1.0" encoding="utf-8"?>
<!-- Generator: Adobe Illustrator 24.3.0, SVG Export Plug-In . SVG Version: 6.00 Build 0)  -->
<svg version="1.1" id="Layer_1" xmlns="http://www.w3.org/2000/svg" xmlns:xlink="http://www.w3.org/1999/xlink" x="0px" y="0px"
	 viewBox="0 0 1080 1920" style="enable-background:new 0 0 1080 1920;" xml:space="preserve">
<style type="text/css">
	.st0{opacity:0.2;}
	.st1{fill:#F1F1F1;}
	.st2{fill:none;}
	.st3{opacity:0.2;fill:#595959;enable-background:new    ;}
	.st4{fill:#FF6531;}
</style>
<g class="st0">
	<g>
		<g>
			<path class="st1" d="M477.6-273c0.6-4.7,1.1-9.4,1.4-14.2L466.2-300h-15.5L477.6-273z"/>
		</g>
		<g>
			<line class="st2" x1="450.7" y1="-300" x2="466.2" y2="-300"/>
		</g>
		<g>
			<path class="st1" d="M175.1-141.2L129.3-187C141.9-169.3,157.4-153.8,175.1-141.2z"/>
		</g>
		<g>
			<path class="st1" d="M471.6-244.4c1.2-4.1,2.2-8.2,3.2-12.4L431.6-300h-15.5L471.6-244.4z"/>
		</g>
		<g>
			<line class="st2" x1="416.1" y1="-300" x2="431.6" y2="-300"/>
		</g>
		<g>
			<path class="st1" d="M450.2-196.6c2-3.2,3.9-6.5,5.7-9.8L362.3-300h-15.5L450.2-196.6z"/>
		</g>
		<g>
			<line class="st2" x1="346.9" y1="-300" x2="362.4" y2="-300"/>
		</g>
		<g>
			<line class="st2" x1="381.5" y1="-300" x2="397" y2="-300"/>
		</g>
		<g>
			<path class="st1" d="M462.3-219.2c1.6-3.6,3.2-7.2,4.6-11L397-300h-15.5L462.3-219.2z"/>
		</g>
		<g>
			<path class="st1" d="M106.9-228.5l109.6,109.6c7.4,2.9,15,5.4,22.9,7.3L99.6-251.4C101.5-243.5,104-235.9,106.9-228.5z"/>
		</g>
		<g>
			<polygon class="st1" points="295.1,-109.5 310.7,-109.5 120.1,-300 104.6,-300 			"/>
		</g>
		<g>
			<path class="st1" d="M93.9-291.6c0.2,5.7,0.7,11.3,1.3,16.9l165.3,165.3H276L93.9-291.6z"/>
		</g>
		<g>
			<line class="st2" x1="312.3" y1="-300" x2="327.8" y2="-300"/>
		</g>
		<g>
			<path class="st1" d="M435.8-176.4c2.3-2.9,4.6-5.8,6.7-8.8L327.8-300h-15.5L435.8-176.4z"/>
		</g>
		<g>
			<line class="st2" x1="208.4" y1="-300" x2="223.9" y2="-300"/>
		</g>
		<g>
			<path class="st1" d="M379.1-129.3c3.3-1.8,6.6-3.8,9.8-5.8L223.9-300h-15.5L379.1-129.3z"/>
		</g>
		<g>
			<path class="st1" d="M400.2-142.8c3-2.2,5.9-4.4,8.8-6.8L258.6-300H243L400.2-142.8z"/>
		</g>
		<g>
			<line class="st2" x1="243" y1="-300" x2="258.6" y2="-300"/>
		</g>
		<g>
			<line class="st2" x1="277.6" y1="-300" x2="293.2" y2="-300"/>
		</g>
		<g>
			<path class="st1" d="M419.1-158.5c2.7-2.5,5.2-5.1,7.8-7.8L293.2-300h-15.5L419.1-158.5z"/>
		</g>
		<g>
			<path class="st1" d="M328.8-110.4c4.2-0.9,8.3-2,12.3-3.2L154.7-300h-15.5L328.8-110.4z"/>
		</g>
		<g>
			<path class="st1" d="M355.4-118.4c3.7-1.4,7.3-3,10.9-4.6l-177-177h-15.5L355.4-118.4z"/>
		</g>
		<g>
			<line class="st2" x1="173.8" y1="-300" x2="189.3" y2="-300"/>
		</g>
		<g>
			<path class="st1" d="M260.5-109.5l2.3,2.3c5.6,0.7,11.2,1.1,16.9,1.3l-3.6-3.6L260.5-109.5L260.5-109.5z"/>
		</g>
		<g>
			<path class="st1" d="M298.5-106.1c4.8-0.3,9.5-0.8,14.1-1.4l-2-2h-15.5L298.5-106.1z"/>
		</g>
	</g>
	<g>
		<g>
			<path class="st1" d="M1018.2,1756.3c10.7,1.4,21.5,2.5,32.4,3.1l29.4-29.4v-35.6L1018.2,1756.3z"/>
		</g>
		<g>
			<line class="st2" x1="1080" y1="1694.5" x2="1080" y2="1730.1"/>
		</g>
		<g>
			<path class="st1" d="M715.9,1062.5l105-105C780.3,986.3,744.8,1021.9,715.9,1062.5z"/>
		</g>
		<g>
			<path class="st1" d="M952.6,1742.5c9.3,2.7,18.8,5.1,28.3,7.3l99.1-99.1v-35.6L952.6,1742.5z"/>
		</g>
		<g>
			<line class="st2" x1="1080" y1="1615.1" x2="1080" y2="1650.7"/>
		</g>
		<g>
			<path class="st1" d="M842.9,1693.5c7.3,4.6,14.8,9,22.4,13.2L1080,1492v-35.6L842.9,1693.5z"/>
		</g>
		<g>
			<line class="st2" x1="1080" y1="1456.4" x2="1080" y2="1492"/>
		</g>
		<g>
			<line class="st2" x1="1080" y1="1535.8" x2="1080" y2="1571.3"/>
		</g>
		<g>
			<path class="st1" d="M894.7,1721.1c8.2,3.7,16.6,7.2,25.1,10.5l160.2-160.3v-35.6L894.7,1721.1z"/>
		</g>
		<g>
			<path class="st1" d="M916,906.2l-251.4,251.4c-6.6,17-12.3,34.5-16.8,52.4l320.6-320.6C950.5,893.9,933,899.6,916,906.2z"/>
		</g>
		<g>
			<polygon class="st1" points="643.1,1337.8 643.1,1373.4 1080,936.5 1080,900.9 			"/>
		</g>
		<g>
			<path class="st1" d="M1060.7,876.4c-13,0.5-25.9,1.5-38.7,3.1l-379,379v35.5L1060.7,876.4z"/>
		</g>
		<g>
			<line class="st2" x1="1080" y1="1377" x2="1080" y2="1412.6"/>
		</g>
		<g>
			<path class="st1" d="M796.7,1660.4c6.5,5.4,13.3,10.5,20.1,15.5l263.2-263.3V1377L796.7,1660.4z"/>
		</g>
		<g>
			<line class="st2" x1="1080" y1="1139" x2="1080" y2="1174.6"/>
		</g>
		<g>
			<path class="st1" d="M688.6,1530.3c4.2,7.6,8.6,15,13.2,22.4l378.2-378.1V1139L688.6,1530.3z"/>
		</g>
		<g>
			<path class="st1" d="M719.5,1578.8c5,6.8,10.1,13.6,15.5,20.1l345-345v-35.6L719.5,1578.8z"/>
		</g>
		<g>
			<line class="st2" x1="1080" y1="1218.3" x2="1080" y2="1253.9"/>
		</g>
		<g>
			<line class="st2" x1="1080" y1="1297.7" x2="1080" y2="1333.3"/>
		</g>
		<g>
			<path class="st1" d="M755.6,1622.1c5.8,6.1,11.7,12,17.8,17.8l306.6-306.6v-35.6L755.6,1622.1z"/>
		</g>
		<g>
			<path class="st1" d="M645.2,1415.1c2.1,9.5,4.6,19,7.3,28.3l427.5-427.6v-35.6L645.2,1415.1z"/>
		</g>
		<g>
			<path class="st1" d="M663.6,1476c3.2,8.5,6.8,16.8,10.5,25.1l405.9-405.9v-35.6L663.6,1476z"/>
		</g>
		<g>
			<line class="st2" x1="1080" y1="1059.6" x2="1080" y2="1095.2"/>
		</g>
		<g>
			<path class="st1" d="M643.1,1258.4l-5.2,5.2c-1.6,12.7-2.6,25.6-3.1,38.7l8.3-8.3V1258.4z"/>
		</g>
		<g>
			<path class="st1" d="M635.3,1345.6c0.7,10.9,1.8,21.7,3.2,32.4l4.6-4.6v-35.6L635.3,1345.6z"/>
		</g>
	</g>
	<g>
		<g>
			<path class="st1" d="M36.3,1627.1c-6.3-0.8-12.6-1.5-19-1.8L0,1642.5v20.9L36.3,1627.1z"/>
		</g>
		<g>
			<line class="st2" x1="0" y1="1663.4" x2="0" y2="1642.5"/>
		</g>
		<g>
			<path class="st1" d="M213.8,2034.4l-61.7,61.7C176,2079.1,196.8,2058.3,213.8,2034.4z"/>
		</g>
		<g>
			<path class="st1" d="M74.8,1635.2c-5.5-1.6-11-3-16.6-4.3L0,1689.1v20.9L74.8,1635.2z"/>
		</g>
		<g>
			<line class="st2" x1="0" y1="1710" x2="0" y2="1689.1"/>
		</g>
		<g>
			<path class="st1" d="M139.2,1664c-4.3-2.7-8.7-5.3-13.2-7.7l-126,126v20.9L139.2,1664z"/>
		</g>
		<g>
			<line class="st2" x1="0" y1="1803.2" x2="0" y2="1782.3"/>
		</g>
		<g>
			<line class="st2" x1="0" y1="1756.6" x2="0" y2="1735.7"/>
		</g>
		<g>
			<path class="st1" d="M108.8,1647.8c-4.8-2.2-9.8-4.3-14.7-6.1l-94.1,94v20.9L108.8,1647.8z"/>
		</g>
		<g>
			<path class="st1" d="M96.3,2126.2l147.6-147.6c3.9-10,7.2-20.2,9.9-30.8L65.5,2136.1C76.1,2133.4,86.3,2130.1,96.3,2126.2z"/>
		</g>
		<g>
			<polygon class="st1" points="256.5,1872.8 256.5,1851.9 0,2108.4 0,2129.3 			"/>
		</g>
		<g>
			<path class="st1" d="M11.3,2143.7c7.7-0.3,15.2-0.9,22.7-1.8l222.5-222.5v-20.9L11.3,2143.7z"/>
		</g>
		<g>
			<line class="st2" x1="0" y1="1849.8" x2="0" y2="1828.9"/>
		</g>
		<g>
			<path class="st1" d="M166.3,1683.4c-3.8-3.1-7.8-6.2-11.8-9.1L0,1828.9v20.9L166.3,1683.4z"/>
		</g>
		<g>
			<line class="st2" x1="0" y1="1989.5" x2="0" y2="1968.6"/>
		</g>
		<g>
			<path class="st1" d="M229.8,1759.7c-2.5-4.5-5.1-8.8-7.8-13.1l-222,222v20.9L229.8,1759.7z"/>
		</g>
		<g>
			<path class="st1" d="M211.6,1731.3c-2.9-4-5.9-8-9.1-11.8L0,1922v20.9L211.6,1731.3z"/>
		</g>
		<g>
			<line class="st2" x1="0" y1="1942.9" x2="0" y2="1922"/>
		</g>
		<g>
			<line class="st2" x1="0" y1="1896.3" x2="0" y2="1875.5"/>
		</g>
		<g>
			<path class="st1" d="M190.4,1705.9c-3.4-3.6-6.9-7.1-10.5-10.4L0,1875.5v20.8L190.4,1705.9z"/>
		</g>
		<g>
			<path class="st1" d="M255.3,1827.4c-1.3-5.6-2.7-11.1-4.3-16.6l-251,251v20.9L255.3,1827.4z"/>
		</g>
		<g>
			<path class="st1" d="M244.5,1791.6c-1.9-5-4-9.9-6.2-14.7L0,2015.2v20.9L244.5,1791.6z"/>
		</g>
		<g>
			<line class="st2" x1="0" y1="2036.1" x2="0" y2="2015.2"/>
		</g>
		<g>
			<path class="st1" d="M256.5,1919.4l3.1-3.1c0.9-7.5,1.5-15,1.8-22.7l-4.9,4.9V1919.4z"/>
		</g>
		<g>
			<path class="st1" d="M261.1,1868.2c-0.4-6.4-1-12.7-1.9-19l-2.7,2.7v20.9L261.1,1868.2z"/>
		</g>
	</g>
	<g>
		<polygon class="st1" points="896.3,348.8 928.9,316.3 896.3,283.6 928.9,251 896.3,218.4 928.9,185.7 896.3,153.1 928.9,120.5 
			889.9,81.4 877.1,94.3 903.3,120.5 870.6,153.1 903.3,185.7 870.6,218.4 903.3,251 870.6,283.6 903.3,316.3 870.6,348.9 
			910.2,388 922.9,375.1 		"/>
	</g>
	<g>
		<path class="st1" d="M226.9,1077.4c0,41.2-33.5,74.7-74.7,74.7s-74.7-33.5-74.7-74.7s33.5-74.7,74.7-74.7
			C193.3,1002.7,226.9,1036.2,226.9,1077.4z M102.6,1077.4c0,27.3,22.2,49.5,49.5,49.5s49.5-22.2,49.5-49.5s-22.2-49.5-49.5-49.5
			S102.6,1050.1,102.6,1077.4z"/>
	</g>
	<path class="st1" d="M888.6,2220h25.2c0-27.3,22.2-49.5,49.5-49.5s49.5,22.2,49.5,49.5h25.2c0-41.2-33.5-74.7-74.7-74.7
		S888.6,2178.8,888.6,2220z"/>
	<g>
		<path class="st1" d="M593-149.4c0-9.3,7.5-16.8,16.8-16.8s16.8,7.5,16.8,16.8s-7.5,16.8-16.8,16.8
			C600.5-132.6,593-140.1,593-149.4z"/>
	</g>
</g>
<path class="st3" d="M347.8,1492.7c0,4.8,3.9,8.7,8.7,8.7c10.9,0,19.7,8.8,19.7,19.7c0,10.9-8.8,19.7-19.7,19.7
	c-20.5,0-37.2,16.7-37.2,37.2s16.7,37.2,37.2,37.2c10.9,0,19.7,8.8,19.7,19.7c0,10.9-8.8,19.7-19.7,19.7
	c-20.5,0-37.2,16.7-37.2,37.2s16.7,37.2,37.2,37.2c4.8,0,8.7-3.9,8.7-8.7c0-4.8-3.9-8.7-8.7-8.7c-10.9,0-19.7-8.8-19.7-19.7
	c0-10.9,8.8-19.7,19.7-19.7c20.5,0,37.2-16.7,37.2-37.2s-16.7-37.2-37.2-37.2c-10.9,0-19.7-8.8-19.7-19.7s8.8-19.7,19.7-19.7
	c20.5,0,37.2-16.7,37.2-37.2S377,1484,356.5,1484C351.7,1483.9,347.8,1487.8,347.8,1492.7z"/>
<ellipse class="st3" cx="740.1" cy="60" rx="46.4" ry="46.4"/>
<rect x="720.1" y="1140.8" class="st3" width="93.7" height="93.7"/>
<polygon class="st3" points="370.8,847.3 370.8,736.3 274.6,791.8 "/>
<polygon class="st3" points="256.2,-66 193.8,-102 193.8,-29.9 "/>
<polygon class="st3" points="1002.2,254.4 968.1,234.7 968.1,274.1 "/>
<path class="st3" d="M989.1,967.3v31.8c0,1.2,0.7,2.3,1.7,3c1.1,0.6,2.4,0.6,3.4,0l27.6-15.9c1.1-0.6,1.7-1.7,1.7-3
	c0-1.2-0.7-2.3-1.7-3l-27.6-15.9c-1.1-0.6-2.4-0.6-3.4,0C989.8,964.9,989.1,966.1,989.1,967.3z M1013.3,983.2l-17.3,10v-20
	L1013.3,983.2z"/>
<path class="st3" d="M961.3,983.2c0,22.5,18.3,40.9,40.9,40.9c22.5,0,40.9-18.3,40.9-40.9c0-22.5-18.3-40.9-40.9-40.9
	C979.7,942.3,961.3,960.7,961.3,983.2z M1036.3,983.2c0,18.8-15.3,34.1-34.1,34.1s-34.1-15.3-34.1-34.1s15.3-34.1,34.1-34.1
	C1021,949.1,1036.3,964.4,1036.3,983.2z"/>
<path class="st3" d="M126.6,1219.5c-9.3,0-16.8,7.5-16.8,16.8c0,9.3,7.5,16.8,16.8,16.8s16.8-7.5,16.8-16.8
	C143.4,1227,135.9,1219.5,126.6,1219.5z"/>
<path class="st3" d="M322.7,88.2c-9.3,0-16.8,7.5-16.8,16.8s7.5,16.8,16.8,16.8s16.8-7.5,16.8-16.8S332,88.2,322.7,88.2z"/>
<path class="st3" d="M729.3,2183.7c0,9.3,7.5,16.8,16.8,16.8s16.8-7.5,16.8-16.8c0-9.3-7.5-16.8-16.8-16.8
	S729.3,2174.4,729.3,2183.7z"/>
<circle class="st3" cx="1034.5" cy="763.9" r="16.8"/>
<path class="st3" d="M38.3,2220h85.4c0-79,64.2-143.2,143.2-143.2s143.2,64.3,143.2,143.2h85.4c0-126.1-102.6-228.7-228.7-228.7
	C140.9,1991.3,38.3,2093.9,38.3,2220z"/>
<path class="st3" d="M0,286.1v199.5c55.1,0,99.7-44.6,99.7-99.7C99.7,330.7,55.1,286.1,0,286.1z"/>
<path class="st3" d="M873,651.5c0.3,0,0.6,0,0.9,0V600h-52.4C821.5,628.5,844.5,651.5,873,651.5z"/>
<path class="st3" d="M1039.8,2006.7v-36.9c-34.1,0-61.8-27.7-61.8-61.8h-36.9C941.1,1962.4,985.4,2006.7,1039.8,2006.7z"/>
<path class="st3" d="M359.9,290v62.2c91.8,0,166.6-74.7,166.6-166.6h-62.2C464.3,243.2,417.5,290,359.9,290z"/>
<polygon class="st3" points="436.6,1281.3 436.6,1298.2 461.9,1298.2 461.9,1323.5 478.8,1323.5 478.8,1298.2 504.2,1298.2 
	504.2,1281.3 478.8,1281.3 478.8,1255.9 461.9,1255.9 461.9,1281.3 "/>
<rect x="879.8" y="2071.9" class="st3" width="16.9" height="67.6"/>
<rect x="1037.7" y="424.2" class="st3" width="42.3" height="16.9"/>
<rect x="289.8" y="2149.1" class="st3" width="16.9" height="42.3"/>
<polygon class="st3" points="676.8,453.4 673.2,453.4 673.2,468.9 657.7,468.9 657.7,472.5 673.2,472.5 673.2,487.9 676.8,487.9 
	676.8,472.5 692.2,472.5 692.2,468.9 676.8,468.9 "/>
<g class="st0">
	<g>
		
			<ellipse transform="matrix(0.7071 -0.7071 0.7071 0.7071 -312.3088 623.6318)" class="st4" cx="596.6" cy="688.8" rx="119.7" ry="119.7"/>
	</g>
	<g>
		<polygon class="st4" points="848.4,-300 979.2,-300 979.2,-224.5 913.8,-262.2 		"/>
	</g>
	<g>
		<path class="st4" d="M976.7,1545.7c0,57,46.2,103.3,103.3,103.3v-206.6C1023,1442.4,976.7,1488.7,976.7,1545.7z"/>
	</g>
	<g>
		<g>
			<rect x="44.7" y="1898.2" class="st4" width="50.7" height="10.8"/>
		</g>
		<g>
			<rect x="64.6" y="1878.2" class="st4" width="10.8" height="50.7"/>
		</g>
	</g>
	<g>
		<path class="st4" d="M9.3,285.6c0-11.6,9.4-21,21-21s21,9.4,21,21s-9.4,21-21,21S9.3,297.2,9.3,285.6z"/>
	</g>
</g>
<path class="st3" d="M576,780.6c0,21.7,17.6,39.3,39.3,39.3c19.7,0,35.6,16,35.6,35.6c0,19.7-16,35.6-35.6,35.6
	c-21.7,0-39.3,17.6-39.3,39.3s17.6,39.3,39.3,39.3c19.7,0,35.6,16,35.6,35.6c0,19.7-16,35.6-35.6,35.6c-1,0-1.8,0.8-1.8,1.8
	s0.8,1.8,1.8,1.8c21.7,0,39.3-17.6,39.3-39.3s-17.6-39.3-39.3-39.3c-19.7,0-35.6-16-35.6-35.6s16-35.6,35.6-35.6
	c21.7,0,39.3-17.6,39.3-39.3c0-21.7-17.6-39.3-39.3-39.3c-19.7,0-35.6-16-35.6-35.6c0-19.7,16-35.6,35.6-35.6c1,0,1.8-0.8,1.8-1.8
	s-0.8-1.8-1.8-1.8C593.7,741.3,576,759,576,780.6z"/>
<path class="st3" d="M974.4-270.2c16.5,0,29.8-13.3,29.8-29.8h-59.6C944.6-283.5,957.9-270.2,974.4-270.2z"/>
</svg>
