<?xml version="1.0" encoding="utf-8"?>
<!-- Generator: Adobe Illustrator 24.3.0, SVG Export Plug-In . SVG Version: 6.00 Build 0)  -->
<svg version="1.1" id="Layer_1" xmlns="http://www.w3.org/2000/svg" xmlns:xlink="http://www.w3.org/1999/xlink" x="0px" y="0px"
	 viewBox="0 0 1920 1080" style="enable-background:new 0 0 1920 1080;" xml:space="preserve">
<style type="text/css">
	.st0{opacity:0.2;}
	.st1{fill:#F1F1F1;}
	.st2{opacity:0.2;fill:#595959;}
	.st3{fill:#FF6531;}
</style>
<g class="st0">
	<g>
		<g>
			<path class="st1" d="M2193,477.6c4.7,0.6,9.4,1.1,14.2,1.4l12.8-12.8v-15.5L2193,477.6z"/>
		</g>
		<g>
			<line class="st1" x1="2220" y1="450.7" x2="2220" y2="466.2"/>
		</g>
		<g>
			<path class="st1" d="M2061.2,175.1l45.8-45.8C2089.3,141.9,2073.8,157.4,2061.2,175.1z"/>
		</g>
		<g>
			<path class="st1" d="M2164.4,471.6c4.1,1.2,8.2,2.2,12.4,3.2l43.2-43.2v-15.5L2164.4,471.6z"/>
		</g>
		<g>
			<line class="st1" x1="2220" y1="416.1" x2="2220" y2="431.6"/>
		</g>
		<g>
			<path class="st1" d="M2116.6,450.2c3.2,2,6.5,3.9,9.8,5.7l93.6-93.6v-15.5L2116.6,450.2z"/>
		</g>
		<g>
			<line class="st1" x1="2220" y1="346.9" x2="2220" y2="362.4"/>
		</g>
		<g>
			<line class="st1" x1="2220" y1="381.5" x2="2220" y2="397"/>
		</g>
		<g>
			<path class="st1" d="M2139.2,462.3c3.6,1.6,7.2,3.2,11,4.6L2220,397v-15.5L2139.2,462.3z"/>
		</g>
		<g>
			<path class="st1" d="M2148.5,106.9l-109.6,109.6c-2.9,7.4-5.4,15-7.3,22.9l139.8-139.8C2163.5,101.5,2155.9,104,2148.5,106.9z"/>
		</g>
		<g>
			<polygon class="st1" points="2029.5,295.1 2029.5,310.7 2220,120.1 2220,104.6 			"/>
		</g>
		<g>
			<path class="st1" d="M2211.6,93.9c-5.7,0.2-11.3,0.7-16.9,1.3l-165.3,165.3V276L2211.6,93.9z"/>
		</g>
		<g>
			<line class="st1" x1="2220" y1="312.3" x2="2220" y2="327.8"/>
		</g>
		<g>
			<path class="st1" d="M2096.4,435.8c2.9,2.3,5.8,4.6,8.8,6.7L2220,327.8v-15.5L2096.4,435.8z"/>
		</g>
		<g>
			<line class="st1" x1="2220" y1="208.4" x2="2220" y2="223.9"/>
		</g>
		<g>
			<path class="st1" d="M2049.3,379.1c1.8,3.3,3.8,6.6,5.8,9.8L2220,223.9v-15.5L2049.3,379.1z"/>
		</g>
		<g>
			<path class="st1" d="M2062.8,400.2c2.2,3,4.4,5.9,6.8,8.8L2220,258.6V243L2062.8,400.2z"/>
		</g>
		<g>
			<line class="st1" x1="2220" y1="243" x2="2220" y2="258.6"/>
		</g>
		<g>
			<line class="st1" x1="2220" y1="277.6" x2="2220" y2="293.2"/>
		</g>
		<g>
			<path class="st1" d="M2078.5,419.1c2.5,2.7,5.1,5.2,7.8,7.8L2220,293.2v-15.5L2078.5,419.1z"/>
		</g>
		<g>
			<path class="st1" d="M2030.4,328.8c0.9,4.2,2,8.3,3.2,12.3L2220,154.7v-15.5L2030.4,328.8z"/>
		</g>
		<g>
			<path class="st1" d="M2038.4,355.4c1.4,3.7,3,7.3,4.6,10.9l177-177v-15.5L2038.4,355.4z"/>
		</g>
		<g>
			<line class="st1" x1="2220" y1="173.8" x2="2220" y2="189.3"/>
		</g>
		<g>
			<path class="st1" d="M2029.5,260.5l-2.3,2.3c-0.7,5.6-1.1,11.2-1.3,16.9l3.6-3.6V260.5z"/>
		</g>
		<g>
			<path class="st1" d="M2026.1,298.5c0.3,4.8,0.8,9.5,1.4,14.1l2-2v-15.5L2026.1,298.5z"/>
		</g>
	</g>
	<g>
		<g>
			<path class="st1" d="M163.7,1018.2c-1.4,10.7-2.5,21.5-3.1,32.4l29.4,29.4h35.6L163.7,1018.2z"/>
		</g>
		<g>
			<line class="st1" x1="225.5" y1="1080" x2="189.9" y2="1080"/>
		</g>
		<g>
			<path class="st1" d="M857.5,715.9l105,105C933.7,780.3,898.1,744.8,857.5,715.9z"/>
		</g>
		<g>
			<path class="st1" d="M177.5,952.6c-2.7,9.3-5.1,18.8-7.3,28.3l99.1,99.1h35.6L177.5,952.6z"/>
		</g>
		<g>
			<line class="st1" x1="304.9" y1="1080" x2="269.3" y2="1080"/>
		</g>
		<g>
			<path class="st1" d="M226.5,842.9c-4.6,7.3-9,14.8-13.2,22.4L428,1080h35.6L226.5,842.9z"/>
		</g>
		<g>
			<line class="st1" x1="463.6" y1="1080" x2="428" y2="1080"/>
		</g>
		<g>
			<line class="st1" x1="384.2" y1="1080" x2="348.7" y2="1080"/>
		</g>
		<g>
			<path class="st1" d="M198.9,894.7c-3.7,8.2-7.2,16.6-10.5,25.1L348.7,1080h35.6L198.9,894.7z"/>
		</g>
		<g>
			<path class="st1" d="M1013.8,916L762.4,664.6c-17-6.6-34.5-12.3-52.4-16.8l320.6,320.6C1026.1,950.5,1020.4,933,1013.8,916z"/>
		</g>
		<g>
			<polygon class="st1" points="582.2,643.1 546.6,643.1 983.5,1080 1019.1,1080 			"/>
		</g>
		<g>
			<path class="st1" d="M1043.6,1060.7c-0.5-13-1.5-25.9-3.1-38.7l-379-379H626L1043.6,1060.7z"/>
		</g>
		<g>
			<line class="st1" x1="543" y1="1080" x2="507.4" y2="1080"/>
		</g>
		<g>
			<path class="st1" d="M259.6,796.7c-5.4,6.5-10.5,13.3-15.5,20.1L507.4,1080H543L259.6,796.7z"/>
		</g>
		<g>
			<line class="st1" x1="781" y1="1080" x2="745.4" y2="1080"/>
		</g>
		<g>
			<path class="st1" d="M389.7,688.6c-7.6,4.2-15,8.6-22.4,13.2L745.4,1080H781L389.7,688.6z"/>
		</g>
		<g>
			<path class="st1" d="M341.2,719.5c-6.8,5-13.6,10.1-20.1,15.5l345,345h35.6L341.2,719.5z"/>
		</g>
		<g>
			<line class="st1" x1="701.7" y1="1080" x2="666.1" y2="1080"/>
		</g>
		<g>
			<line class="st1" x1="622.3" y1="1080" x2="586.7" y2="1080"/>
		</g>
		<g>
			<path class="st1" d="M297.9,755.6c-6.1,5.8-12,11.7-17.8,17.8L586.7,1080h35.6L297.9,755.6z"/>
		</g>
		<g>
			<path class="st1" d="M504.9,645.2c-9.5,2.1-19,4.6-28.3,7.3L904.2,1080h35.6L504.9,645.2z"/>
		</g>
		<g>
			<path class="st1" d="M444,663.6c-8.5,3.2-16.8,6.8-25.1,10.5L824.8,1080h35.6L444,663.6z"/>
		</g>
		<g>
			<line class="st1" x1="860.4" y1="1080" x2="824.8" y2="1080"/>
		</g>
		<g>
			<path class="st1" d="M661.6,643.1l-5.2-5.2c-12.7-1.6-25.6-2.6-38.7-3.1l8.3,8.3H661.6z"/>
		</g>
		<g>
			<path class="st1" d="M574.4,635.3c-10.9,0.7-21.7,1.8-32.4,3.2l4.6,4.6h35.6L574.4,635.3z"/>
		</g>
	</g>
	<g>
		<g>
			<path class="st1" d="M292.9,36.3c0.8-6.3,1.5-12.6,1.8-19L277.5,0h-20.9L292.9,36.3z"/>
		</g>
		<g>
			<line class="st1" x1="256.6" y1="0" x2="277.5" y2="0"/>
		</g>
		<g>
			<path class="st1" d="M-114.4,213.8l-61.7-61.7C-159.1,176-138.3,196.8-114.4,213.8z"/>
		</g>
		<g>
			<path class="st1" d="M284.8,74.8c1.6-5.5,3-11,4.3-16.6L230.9,0H210L284.8,74.8z"/>
		</g>
		<g>
			<line class="st1" x1="210" y1="0" x2="230.9" y2="0"/>
		</g>
		<g>
			<path class="st1" d="M256,139.2c2.7-4.3,5.3-8.7,7.7-13.2L137.7,0h-20.9L256,139.2z"/>
		</g>
		<g>
			<line class="st1" x1="116.8" y1="0" x2="137.7" y2="0"/>
		</g>
		<g>
			<line class="st1" x1="163.4" y1="0" x2="184.3" y2="0"/>
		</g>
		<g>
			<path class="st1" d="M272.2,108.8c2.2-4.8,4.3-9.8,6.1-14.7L184.3,0h-20.9L272.2,108.8z"/>
		</g>
		<g>
			<path class="st1" d="M-206.2,96.3l147.6,147.6c10,3.9,20.2,7.2,30.8,9.9L-216.1,65.5C-213.4,76.1-210.1,86.3-206.2,96.3z"/>
		</g>
		<g>
			<polygon class="st1" points="47.2,256.5 68.1,256.5 -188.4,0 -209.3,0 			"/>
		</g>
		<g>
			<path class="st1" d="M-223.7,11.3c0.3,7.7,0.9,15.2,1.8,22.7L0.6,256.5h20.9L-223.7,11.3z"/>
		</g>
		<g>
			<line class="st1" x1="70.2" y1="0" x2="91.1" y2="0"/>
		</g>
		<g>
			<path class="st1" d="M236.6,166.3c3.1-3.8,6.2-7.8,9.1-11.8L91.1,0H70.2L236.6,166.3z"/>
		</g>
		<g>
			<line class="st1" x1="-69.5" y1="0" x2="-48.6" y2="0"/>
		</g>
		<g>
			<path class="st1" d="M160.3,229.8c4.5-2.5,8.8-5.1,13.1-7.8L-48.6,0h-20.9L160.3,229.8z"/>
		</g>
		<g>
			<path class="st1" d="M188.7,211.6c4-2.9,8-5.9,11.8-9.1L-2,0h-20.9L188.7,211.6z"/>
		</g>
		<g>
			<line class="st1" x1="-22.9" y1="0" x2="-2" y2="0"/>
		</g>
		<g>
			<line class="st1" x1="23.7" y1="0" x2="44.5" y2="0"/>
		</g>
		<g>
			<path class="st1" d="M214.1,190.4c3.6-3.4,7.1-6.9,10.4-10.5L44.5,0H23.7L214.1,190.4z"/>
		</g>
		<g>
			<path class="st1" d="M92.6,255.3c5.6-1.3,11.1-2.7,16.6-4.3l-251-251h-20.9L92.6,255.3z"/>
		</g>
		<g>
			<path class="st1" d="M128.4,244.5c5-1.9,9.9-4,14.7-6.2L-95.2,0h-20.9L128.4,244.5z"/>
		</g>
		<g>
			<line class="st1" x1="-116.1" y1="0" x2="-95.2" y2="0"/>
		</g>
		<g>
			<path class="st1" d="M0.6,256.5l3.1,3.1c7.5,0.9,15,1.5,22.7,1.8l-4.9-4.9H0.6z"/>
		</g>
		<g>
			<path class="st1" d="M51.8,261.1c6.4-0.4,12.7-1,19-1.9l-2.7-2.7H47.2L51.8,261.1z"/>
		</g>
	</g>
	<g>
		<polygon class="st1" points="1571.2,896.3 1603.7,928.9 1636.4,896.3 1669,928.9 1701.6,896.3 1734.3,928.9 1766.9,896.3 
			1799.5,928.9 1838.6,889.9 1825.7,877.1 1799.5,903.3 1766.9,870.6 1734.3,903.3 1701.6,870.6 1669,903.3 1636.4,870.6 
			1603.7,903.3 1571.1,870.6 1532,910.2 1544.9,922.9 		"/>
	</g>
	<g>
		<path class="st1" d="M842.6,226.9c-41.2,0-74.7-33.5-74.7-74.7c0-41.2,33.5-74.7,74.7-74.7c41.2,0,74.7,33.5,74.7,74.7
			C917.3,193.3,883.8,226.9,842.6,226.9z M842.6,102.6c-27.3,0-49.5,22.2-49.5,49.5s22.2,49.5,49.5,49.5c27.3,0,49.5-22.2,49.5-49.5
			S869.9,102.6,842.6,102.6z"/>
	</g>
	<path class="st1" d="M-300,888.6v25.2c27.3,0,49.5,22.2,49.5,49.5c0,27.3-22.2,49.5-49.5,49.5v25.2c41.2,0,74.7-33.5,74.7-74.7
		C-225.3,922.1-258.8,888.6-300,888.6z"/>
	<g>
		<path class="st1" d="M2069.4,593c9.3,0,16.8,7.5,16.8,16.8c0,9.3-7.5,16.8-16.8,16.8c-9.3,0-16.8-7.5-16.8-16.8
			C2052.6,600.5,2060.1,593,2069.4,593z"/>
	</g>
</g>
<path class="st2" d="M427.3,347.8c-4.8,0-8.7,3.9-8.7,8.7c0,10.9-8.8,19.7-19.7,19.7c-10.9,0-19.7-8.8-19.7-19.7
	c0-20.5-16.7-37.2-37.2-37.2c-20.5,0-37.2,16.7-37.2,37.2c0,10.9-8.8,19.7-19.7,19.7c-10.9,0-19.7-8.8-19.7-19.7
	c0-20.5-16.7-37.2-37.2-37.2c-20.5,0-37.2,16.7-37.2,37.2c0,4.8,3.9,8.7,8.7,8.7s8.7-3.9,8.7-8.7c0-10.9,8.8-19.7,19.7-19.7
	c10.9,0,19.7,8.8,19.7,19.7c0,20.5,16.7,37.2,37.2,37.2c20.5,0,37.2-16.7,37.2-37.2c0-10.9,8.8-19.7,19.7-19.7
	c10.9,0,19.7,8.8,19.7,19.7c0,20.5,16.7,37.2,37.2,37.2c20.5,0,37.2-16.7,37.2-37.2C436.1,351.7,432.2,347.8,427.3,347.8z"/>
<ellipse transform="matrix(0.9871 -0.1602 0.1602 0.9871 -94.5319 307.488)" class="st2" cx="1860" cy="740.1" rx="46.4" ry="46.4"/>
<rect x="685.5" y="720.1" class="st2" width="93.7" height="93.7"/>
<polygon class="st2" points="1072.7,370.8 1183.7,370.8 1128.2,274.6 "/>
<polygon class="st2" points="1986,256.2 2022,193.8 1949.9,193.8 "/>
<polygon class="st2" points="1665.6,1002.2 1685.3,968.1 1645.9,968.1 "/>
<path class="st2" d="M952.7,989.1h-31.8c-1.2,0-2.3,0.7-3,1.7c-0.6,1.1-0.6,2.4,0,3.4l15.9,27.6c0.6,1.1,1.7,1.7,3,1.7
	c1.2,0,2.3-0.7,3-1.7l15.9-27.6c0.6-1.1,0.6-2.4,0-3.4C955.1,989.8,953.9,989.1,952.7,989.1z M936.8,1013.3l-10-17.3h20
	L936.8,1013.3z"/>
<path class="st2" d="M936.8,961.3c-22.5,0-40.9,18.3-40.9,40.9c0,22.5,18.3,40.9,40.9,40.9c22.5,0,40.9-18.3,40.9-40.9
	C977.7,979.7,959.3,961.3,936.8,961.3z M936.8,1036.3c-18.8,0-34.1-15.3-34.1-34.1c0-18.8,15.3-34.1,34.1-34.1
	c18.8,0,34.1,15.3,34.1,34.1C970.9,1021,955.6,1036.3,936.8,1036.3z"/>
<path class="st2" d="M700.5,126.6c0-9.3-7.5-16.8-16.8-16.8c-9.3,0-16.8,7.5-16.8,16.8c0,9.3,7.5,16.8,16.8,16.8
	C693,143.4,700.5,135.9,700.5,126.6z"/>
<path class="st2" d="M1831.8,322.7c0-9.3-7.5-16.8-16.8-16.8c-9.3,0-16.8,7.5-16.8,16.8c0,9.3,7.5,16.8,16.8,16.8
	C1824.3,339.5,1831.8,332,1831.8,322.7z"/>
<path class="st2" d="M-263.7,729.3c-9.3,0-16.8,7.5-16.8,16.8c0,9.3,7.5,16.8,16.8,16.8c9.3,0,16.8-7.5,16.8-16.8
	C-246.9,736.8-254.4,729.3-263.7,729.3z"/>
<circle class="st2" cx="1156.1" cy="1034.5" r="16.8"/>
<path class="st2" d="M-300,38.3v85.4c79,0,143.2,64.2,143.2,143.2c0,79-64.3,143.2-143.2,143.2v85.4
	c126.1,0,228.7-102.6,228.7-228.7C-71.3,140.9-173.9,38.3-300,38.3z"/>
<path class="st2" d="M1633.9,0h-199.5c0,55.1,44.6,99.7,99.7,99.7C1589.3,99.7,1633.9,55.1,1633.9,0z"/>
<path class="st2" d="M1268.5,873c0,0.3,0,0.6,0,0.9h51.5v-52.4C1291.5,821.5,1268.5,844.5,1268.5,873z"/>
<path class="st2" d="M-86.7,1039.8h36.9c0-34.1,27.7-61.8,61.8-61.8v-36.9C-42.4,941.1-86.7,985.4-86.7,1039.8z"/>
<path class="st2" d="M1630,359.9h-62.2c0,91.8,74.7,166.6,166.6,166.6v-62.2C1676.8,464.3,1630,417.5,1630,359.9z"/>
<polygon class="st2" points="638.7,436.6 621.8,436.6 621.8,461.9 596.5,461.9 596.5,478.8 621.8,478.8 621.8,504.2 638.7,504.2 
	638.7,478.8 664.1,478.8 664.1,461.9 638.7,461.9 "/>
<rect x="-219.5" y="879.8" class="st2" width="67.6" height="16.9"/>
<rect x="1478.9" y="1037.7" class="st2" width="16.9" height="42.3"/>
<rect x="-271.4" y="289.8" class="st2" width="42.3" height="16.9"/>
<polygon class="st2" points="1466.6,676.8 1466.6,673.2 1451.1,673.2 1451.1,657.7 1447.5,657.7 1447.5,673.2 1432.1,673.2 
	1432.1,676.8 1447.5,676.8 1447.5,692.2 1451.1,692.2 1451.1,676.8 "/>
<g class="st0">
	<g>
		
			<ellipse transform="matrix(0.7071 -0.7071 0.7071 0.7071 -61.2432 1045.3613)" class="st3" cx="1231.2" cy="596.6" rx="119.7" ry="119.7"/>
	</g>
	<g>
		<polygon class="st3" points="2220,848.4 2220,979.2 2144.5,979.2 2182.2,913.8 		"/>
	</g>
	<g>
		<path class="st3" d="M374.3,976.7c-57,0-103.3,46.2-103.3,103.3h206.6C477.6,1023,431.3,976.7,374.3,976.7z"/>
	</g>
	<g>
		<g>
			<rect x="11" y="44.7" class="st3" width="10.8" height="50.7"/>
		</g>
		<g>
			<rect x="-8.9" y="64.6" class="st3" width="50.7" height="10.8"/>
		</g>
	</g>
	<g>
		<path class="st3" d="M1634.4,9.3c11.6,0,21,9.4,21,21s-9.4,21-21,21c-11.6,0-21-9.4-21-21S1622.8,9.3,1634.4,9.3z"/>
	</g>
</g>
<path class="st2" d="M1139.4,576c-21.7,0-39.3,17.6-39.3,39.3c0,19.7-16,35.6-35.6,35.6c-19.7,0-35.6-16-35.6-35.6
	c0-21.7-17.6-39.3-39.3-39.3c-21.7,0-39.3,17.6-39.3,39.3c0,19.7-16,35.6-35.6,35.6c-19.7,0-35.6-16-35.6-35.6c0-1-0.8-1.8-1.8-1.8
	c-1,0-1.8,0.8-1.8,1.8c0,21.7,17.6,39.3,39.3,39.3c21.7,0,39.3-17.6,39.3-39.3c0-19.7,16-35.6,35.6-35.6s35.6,16,35.6,35.6
	c0,21.7,17.6,39.3,39.3,39.3c21.7,0,39.3-17.6,39.3-39.3c0-19.7,16-35.6,35.6-35.6c19.7,0,35.6,16,35.6,35.6c0,1,0.8,1.8,1.8,1.8
	c1,0,1.8-0.8,1.8-1.8C1178.7,593.7,1161,576,1139.4,576z"/>
<path class="st2" d="M2190.2,974.4c0,16.5,13.3,29.8,29.8,29.8v-59.6C2203.5,944.6,2190.2,957.9,2190.2,974.4z"/>
</svg>
